<svg stroke="0" xmlns="http://www.w3.org/2000/svg" viewBox="0 0 693.47 323.45" fill="none">
    <path fill="#1221af"
        d="M251.81,0H34.83C15.48,0,0,15.69,0,34.83v145.86c144.64,34.99,209.14,20.81,237.51-1.71,25.64-20,21.99-46.98,21.5-51.13.65,1.3,1.99,4.31,3.5,8.82.49,1.18.81,2.32.98,3.66,5.69,24.02,7.19,62.02-28.33,85.67-34.5,22.84-102.99,32.15-235.15,2.84v22.84c0,19.14,15.48,34.83,34.83,34.83h216.98c19.18,0,34.83-15.69,34.83-34.83V34.83c0-19.14-15.65-34.83-34.83-34.83ZM196.99,153.34l-17.47-17.52-3.54-3.5-20.81,21.01-25.36-25.48,25.36-25.36,20.81,20.85,3.54-3.33,17.47-17.52,25.32,25.36-25.32,25.48Z" />
    <Polygon fill="#1221af"
        points="222.31 127.86 196.99 153.34 179.51 135.82 175.98 132.33 155.17 153.34 129.81 127.86 155.17 102.5 175.98 123.35 179.51 120.01 196.99 102.5 222.31 127.86" />
    <Polygon fill="#1221af"
        points="222.31 127.86 196.99 153.34 179.51 135.82 175.98 132.33 155.17 153.34 129.81 127.86 155.17 102.5 175.98 123.35 179.51 120.01 196.99 102.5 222.31 127.86" />
    <path fill="#1221af"
        d="M235.15,226.01c-34.5,22.84-102.99,32.15-235.15,2.84v-48.16c144.64,34.99,209.14,20.81,237.51-1.71,25.64-20,21.99-46.98,21.5-51.13.65,1.3,1.99,4.31,3.5,8.82.49,1.18.81,2.32.98,3.66,5.69,24.02,7.19,62.02-28.33,85.67Z" />
    <path fill="#fff"
        d="M235.15,226.01c-34.5,22.84-102.99,32.15-235.15,2.84v-48.16c144.64,34.99,209.14,20.81,237.51-1.71,25.64-20,21.99-46.98,21.5-51.13.65,1.3,1.99,4.31,3.5,8.82.49,1.18.81,2.32.98,3.66,5.69,24.02,7.19,62.02-28.33,85.67Z" />
    <path fill="#fff"
        d="M235.15,226.01c-34.5,22.84-102.99,32.15-235.15,2.84v-48.16c144.64,34.99,209.14,20.81,237.51-1.71,25.64-20,21.99-46.98,21.5-51.13.65,1.3,1.99,4.31,3.5,8.82.49,1.18.81,2.32.98,3.66,5.69,24.02,7.19,62.02-28.33,85.67Z" />
    <Polygon fill="#fff"
        points="222.31 127.86 196.99 153.34 179.51 135.82 175.98 132.33 155.17 153.34 129.81 127.86 155.17 102.5 175.98 123.35 179.51 120.01 196.99 102.5 222.31 127.86" />

    <path fill="#1221af"
        d="M415.86,102.41c-4.04,4.04-8.63,7.25-13.78,9.63-5.14,2.4-10.23,3.59-15.22,3.59-6.27,0-11.99-1.57-17.2-4.69-5.2-3.15-9.3-7.4-12.26-12.74-2.97-5.36-4.46-11.3-4.46-17.78s1.49-12.37,4.46-17.67c2.97-5.3,7.07-9.51,12.26-12.58,5.21-3.07,10.94-4.63,17.2-4.63,5.2,0,10.38,1.3,15.55,3.9,5.14,2.61,9.63,6.19,13.45,10.74l14.64-17.99c-5.51-5.74-12.2-10.27-20.07-13.62-7.86-3.34-15.82-5.02-23.89-5.02-11.04,0-21.11,2.5-30.19,7.47-9.08,5-16.23,11.86-21.42,20.56-5.2,8.71-7.8,18.42-7.8,29.15s2.55,20.65,7.65,29.47c5.09,8.81,12.1,15.74,21.02,20.79,8.92,5.05,18.85,7.56,29.78,7.56,8.08,0,16.12-1.81,24.15-5.41,8-3.62,14.99-8.5,20.94-14.67l-14.81-16.07Z" />
    <path fill="#1221af"
        d="M518.29,136.82l-.17-55.91c-.12-9.67-3.33-17.2-9.64-22.63-6.31-5.42-15.22-8.12-26.7-8.12-7.11,0-13.63.8-19.57,2.4-5.97,1.57-12.32,4.08-19.13,7.49l7.65,16.87c9.02-5,17.54-7.49,25.49-7.49,5.85,0,10.27,1.25,13.3,3.75,3.03,2.49,4.53,6.01,4.53,10.59v1.6h-23.56c-10.43.09-18.45,2.41-24.13,6.91-5.68,4.52-8.54,10.8-8.54,18.88s2.67,14.42,7.98,19.36c5.3,4.94,12.46,7.41,21.5,7.41,5.94,0,11.19-.95,15.77-2.88,4.55-1.9,8.29-4.67,11.15-8.29v10.05h24.06ZM494.07,107.5c-.75,3.72-2.98,6.81-6.69,9.25-3.71,2.44-8.12,3.66-13.21,3.66-4.16,0-7.41-.98-9.81-2.95-2.38-1.97-3.57-4.58-3.57-7.89s1.13-5.86,3.42-7.4c2.27-1.54,5.8-2.32,10.59-2.32h19.27v7.65Z" />
    <path fill="#1221af"
        d="M598.24,97.23c-2.86-3.45-6.25-6.06-10.2-7.8-3.92-1.75-8.92-3.54-14.97-5.35-5.51-1.57-9.51-3.03-11.95-4.29-2.44-1.27-3.66-3.07-3.66-5.42,0-2.11.92-3.71,2.71-4.76,1.79-1.05,4.19-1.6,7.17-1.6,3.62,0,7.7.71,12.26,2.15,4.56,1.43,9.19,3.48,13.86,6.13l8.45-16.74c-4.79-3.07-10.09-5.44-15.94-7.08-5.85-1.64-11.69-2.47-17.52-2.47-9.78,0-17.85,2.35-24.21,7.02-6.39,4.67-9.55,11.24-9.55,19.74,0,5.54,1.36,10.02,4.13,13.47,2.77,3.45,6.09,6.03,9.96,7.73,3.87,1.69,8.72,3.41,14.57,5.09,5.53,1.6,9.54,3.07,12.04,4.46,2.49,1.39,3.74,3.28,3.74,5.72,0,2.24-.98,3.92-2.95,5.03-1.96,1.12-4.58,1.67-7.86,1.67-4.79,0-9.87-.92-15.23-2.79-5.35-1.87-10.21-4.49-14.55-7.88l-7.98,16.56c4.79,3.83,10.43,6.78,16.9,8.84,6.48,2.06,13.21,3.1,20.22,3.1,10.2,0,18.56-2.35,25.08-7.1,6.54-4.72,9.81-11.33,9.81-19.81,0-5.63-1.43-10.18-4.31-13.63Z" />
    <path fill="#1221af"
        d="M692.71,136.82l-.17-55.91c-.12-9.67-3.31-17.2-9.64-22.63-6.31-5.42-15.22-8.12-26.68-8.12-7.11,0-13.65.8-19.58,2.4-5.95,1.57-12.32,4.08-19.12,7.49l7.64,16.87c9.02-5,17.54-7.49,25.49-7.49,5.85,0,10.27,1.25,13.3,3.75,3.03,2.49,4.53,6.01,4.53,10.59v1.6h-23.56c-10.42.09-18.45,2.41-24.13,6.91-5.68,4.52-8.53,10.8-8.53,18.88s2.65,14.42,7.97,19.36c5.3,4.94,12.47,7.41,21.5,7.41,5.94,0,11.19-.95,15.77-2.88,4.56-1.9,8.29-4.67,11.15-8.29v10.05h24.06ZM668.49,107.5c-.74,3.72-2.97,6.81-6.69,9.25-3.71,2.44-8.12,3.66-13.21,3.66-4.16,0-7.41-.98-9.79-2.95-2.4-1.97-3.59-4.58-3.59-7.89s1.14-5.86,3.42-7.4c2.27-1.54,5.8-2.32,10.59-2.32h19.27v7.65Z" />

    <path fill="#1221af" d="M327.13,168.91v10.5h26.85v73.04h11.45v-73.04h26.97v-10.5h-65.26Z" />
    <path fill="#1221af"
        d="M450.33,204.3c-2.73-4.81-6.55-8.57-11.46-11.28-4.88-2.7-10.47-4.07-16.75-4.07s-11.99,1.37-16.89,4.07c-4.88,2.71-8.71,6.48-11.45,11.28-2.76,4.81-4.11,10.32-4.11,16.53s1.36,11.84,4.11,16.65c2.74,4.81,6.57,8.57,11.45,11.28,4.9,2.7,10.53,4.04,16.89,4.04s11.87-1.34,16.75-4.04c4.91-2.71,8.74-6.49,11.46-11.34,2.76-4.85,4.11-10.38,4.11-16.59s-1.36-11.72-4.11-16.53ZM440.56,232.65c-1.79,3.4-4.29,6.06-7.52,7.92-3.22,1.87-6.85,2.8-10.92,2.8s-7.82-.93-11.03-2.8c-3.24-1.87-5.74-4.52-7.53-7.92-1.79-3.43-2.68-7.34-2.68-11.71s.89-8.13,2.68-11.51c1.79-3.39,4.29-6.04,7.53-7.94,3.21-1.91,6.9-2.88,11.03-2.88s7.7.96,10.92,2.88c3.22,1.9,5.72,4.55,7.52,7.94,1.79,3.37,2.7,7.22,2.7,11.51s-.9,8.27-2.7,11.71Z" />
    <path fill="#1221af"
        d="M514.6,189.32v31.02c0,6.36-1.73,11.6-5.18,15.7-3.47,4.1-8.13,6.19-14.03,6.25-5.09,0-9.1-1.48-11.99-4.46-2.92-2.98-4.35-7.14-4.35-12.47v-36.04h-11.22v39.02c0,7.64,2.06,13.62,6.21,17.96,4.13,4.34,9.87,6.49,17.17,6.49,11.46-.15,19.27-4.72,23.4-13.71v13.36h11.22v-63.12h-11.22Z" />
    <path fill="#1221af"
        d="M567.33,192.6c-3.81,2.34-6.75,5.77-8.81,10.32v-13.6h-11.12v63.12h11.12v-33.29c.54-6.04,2.82-10.86,6.78-14.45,3.99-3.57,9.19-5.24,15.65-5v-10.76c-5.26.09-9.79,1.31-13.62,3.66Z" />
    <path fill="#1221af"
        d="M639.78,252.44l-.12-41.53c-.09-6.91-2.26-12.31-6.57-16.16-4.29-3.86-10.38-5.8-18.26-5.8-5.33,0-9.93.66-13.78,1.97-3.86,1.31-8.04,3.45-12.58,6.39l4.64,7.64c6.61-4.53,13.11-6.81,19.45-6.81,5.26,0,9.26,1.22,11.99,3.66,2.76,2.41,4.14,5.86,4.14,10.32v2.98h-20.07c-7.47.08-13.3,1.78-17.48,5.08-4.19,3.3-6.27,7.76-6.27,13.41,0,3.68.9,6.98,2.7,9.91,1.78,2.95,4.32,5.26,7.64,6.91,3.28,1.69,7.13,2.52,11.51,2.52,10.02,0,17.39-3.1,22.07-9.33v8.84h10.98ZM628.69,230.01c-.72,4.13-2.91,7.46-6.52,9.96-3.62,2.52-8,3.77-13.18,3.77-4.14,0-7.44-.96-9.9-2.86-2.47-1.91-3.71-4.5-3.71-7.77s1.22-5.63,3.63-7.16c2.44-1.51,6.15-2.24,11.16-2.24h18.51v6.31Z" />
    <path fill="#1221af"
        d="M690.5,239.67c-3.51,2-6.78,3-9.79,3-2.55,0-4.46-.75-5.72-2.27-1.28-1.51-1.91-4.02-1.91-7.52v-32.95h19.33v-8.47h-19.33v-16.93h-11.22v16.93h-8.95v8.47h8.95v34.97c0,6.06,1.57,10.58,4.67,13.54,3.09,3,7.16,4.49,12.16,4.49s9.94-1.55,14.79-4.66l-2.97-8.6Z" />
</svg>