<!DOCTYPE svg PUBLIC "-//W3C//DTD SVG 1.1//EN" "http://www.w3.org/Graphics/SVG/1.1/DTD/svg11.dtd">

<!-- Uploaded to: SVG Repo, www.svgrepo.com, Transformed by: SVG Repo Mixer Tools -->
<svg width="81px" height="81px" viewBox="-102.4 -102.4 1228.80 1228.80" fill="#ff0000" class="icon" version="1.1"
    xmlns="http://www.w3.org/2000/svg" stroke="#ff0000" stroke-width="35.839999999999996" transform="rotate(0)">

    <g id="SVGRepo_bgCarrier" stroke-width="0"/>

    <g id="SVGRepo_tracerCarrier" stroke-linecap="round" stroke-linejoin="round" stroke="#CCCCCC" stroke-width="4.096"/>

    <g id="SVGRepo_iconCarrier">

        <path d="M406.055 511.941c0 0.004 0 0.007 0 0.008 0 58.479 47.407 105.886 105.886 105.886 58.478 0 105.886-47.407 105.886-105.886 0-0.004 0-0.008 0-0.008 0-0.003 0-0.007 0-0.007 0-58.478-47.407-105.886-105.886-105.886-58.478 0-105.886 47.407-105.886 105.886 0 0.004 0 0.007 0 0.007zM511.941 859.615c-191.564 0-347.555-155.992-347.555-347.674s155.992-347.555 347.555-347.555 347.555 155.992 347.555 347.555-155.874 347.674-347.555 347.674zM511.941 235.292c-152.565 0-276.65 124.085-276.65 276.65s124.085 276.65 276.65 276.65 276.65-124.085 276.65-276.65-124.085-276.65-276.65-276.65z"/>

    </g>

</svg>